<?xml version="1.0" encoding="utf-8"?>
<!-- Generator: Adobe Illustrator 21.0.2, SVG Export Plug-In . SVG Version: 6.00 Build 0)  -->
<svg version="1.1" id="Layer_1" xmlns="http://www.w3.org/2000/svg" xmlns:xlink="http://www.w3.org/1999/xlink" x="0px" y="0px"
	 viewBox="0 0 20 14.4" style="enable-background:new 0 0 20 14.4;" xml:space="preserve">
<style type="text/css">
	.st0{fill:#F4F4F4;}
	.st1{fill:#36B2E2;}
	.st2{fill:none;}
	.st3{fill:#555D66;}
</style>
<g>
	<g>
		<g id="XMLID_43896_">
			<path class="st0" d="M-154.2-24.5h-135.5c-5.1,0-9.3,4.2-9.3,9.3v91.4c0,5.1,4.2,9.3,9.3,9.3h135.5c5.1,0,9.3-4.2,9.3-9.3v-91.4
				C-144.9-20.3-149.1-24.5-154.2-24.5z"/>
		</g>
		<rect id="XMLID_27593_" x="-220.4" y="36.1" class="st1" width="63.8" height="3.9"/>
		<rect id="XMLID_172_" x="-220.4" y="27.1" class="st1" width="63.8" height="3.9"/>
		<rect id="XMLID_170_" x="-220.4" y="19.1" class="st1" width="63.8" height="3.9"/>
		<rect id="XMLID_42880_" x="-220.4" y="43.9" class="st1" width="63.8" height="3.9"/>
		<rect id="XMLID_42649_" x="-287.3" y="51.7" class="st1" width="130.8" height="3.9"/>
		<rect id="XMLID_42418_" x="-287.3" y="59.5" class="st1" width="130.8" height="3.9"/>
		<rect id="XMLID_42187_" x="-220.4" y="1.2" class="st1" width="18" height="13.1"/>
		<rect id="XMLID_41956_" x="-197.5" y="1.2" class="st1" width="18" height="13.1"/>
		<rect id="XMLID_41725_" x="-174.6" y="1.2" class="st1" width="18" height="13.1"/>
		<rect id="XMLID_39345_" x="-287.3" y="1.2" class="st1" width="54.7" height="38.4"/>
		<path id="XMLID_27261_" class="st2" d="M-237.4,37.9c-0.8-3.9-2.2-7.6-4.4-10.9c-1.8-2.7-4.1-5-6.5-7.1c-0.2-0.2-0.8-0.3-0.4-0.8
			c0.5-0.6,0.1-1-0.4-1.2c-0.7-0.3-0.5-0.6-0.1-1c3.7-4.5,4.6-9.5,2.1-14.7c-0.1-0.3-0.3-0.6-0.4-0.8c-2.5-4.7-6.6-7.3-12.3-7.2
			c-5.5,0.1-9.7,2.5-12.1,7.2c-0.1,0.2-0.2,0.4-0.3,0.6c-2.4,5-1.8,10,1.7,14.5c0.5,0.6,1,1.1-0.1,1.5c-0.2,0.1-0.5,0.3-0.4,0.6
			c0.2,0.7-0.4,1-0.8,1.3c-5.5,4.5-9.1,10.2-10.5,17.2c-0.4,1.9-0.4,1.9,1.4,2.8c42.8,0,42.8,0,42.8,0S-237.2,38.7-237.4,37.9z
			 M-249.9,21c-0.1,0.1-0.2,0.3-0.4,0.4c-4.2,3.7-6.8,8.4-8.5,13.6c-0.1,0.2-0.1,0.5-0.2,0.7c-0.2,0.5-0.4,1-1.1,1
			c-0.7,0-1-0.5-1.1-1c-0.4-1.1-0.7-2.3-1.1-3.4c-1.2-3.1-2.8-5.9-4.9-8.4c-1-1.1-0.7-1.1-1.8,0c-3.9,4.4-6.5,9.4-8.1,15
			c-0.1,0.3-0.7,0.8-0.7,0.8s-1.8-0.7-1.6-1.5c1.5-5.9,4.5-11,8.9-15.3c0.2-0.2,0.5-0.4,0.7-0.7c0.2-0.2,0.6-0.3,0.3-0.7
			s-0.6,0-0.8,0.2c-0.6,0.6-1.2,1.1-1.8,1.8c-3.8,4.1-6.5,8.8-8,14.2c-0.1,0.3,0.1,0.9-0.5,0.7c-0.6-0.1-0.4-0.6-0.4-1
			c1.4-6.9,5-12.5,10.4-17c0.7-0.5,1-0.3,1.5,0.1c4.1,3.7,6.6,8.4,8.3,13.6c0.1,0.4,0.2,0.7,0.4,1.1c0.2,0.5,0.5,0.7,0.9,0.2
			c-0.1-0.1-0.2-0.3-0.3-0.4c-0.6-0.5-0.5-1.3-0.7-2c-0.4-1.5-0.7-3-0.9-4.6c0-0.1,0-0.2,0-0.3c-0.4-0.7,1.2-1.3,0.1-2
			c-0.7-0.4-0.8-1.3-1.1-2c-0.6,0.2-0.7,0.8-1.3,1.2c-1.5-2.3-3.2-4.4-5.2-6.3c-0.1-0.2-0.3-0.3-0.1-0.5c0.1-0.2,0.3-0.2,0.6-0.1
			c0.2,0.2,0.4,0.3,0.7,0.5c4.7,3.5,11.3,3.4,15.9-0.1c0.2-0.2,0.4-0.4,0.7-0.5c0.3-0.2,0.6,0,0.7,0.2c0.3,0.3-0.1,0.4-0.2,0.6
			c-2,1.8-3.7,3.8-5.1,6.1c-0.4,0-0.4-0.5-0.8-0.6c-0.3,0.7-0.6,1.5-1.3,1.9c-0.3,0.2-0.3,0.4-0.1,0.6c0.5,0.6,0.4,1.3,0.2,2
			c-0.2,1.1-0.8,2-0.7,3.1c0.5-0.1,0.5-0.6,0.6-0.9c1.6-3.8,3.7-7.2,6.6-10c0.3-0.2,0.5-0.5,0.8-0.7c0.1-0.1,0.3-0.2,0.5,0
			C-249.9,20.5-249.7,20.8-249.9,21z"/>
		<g id="XMLID_27027_">
			
				<image style="overflow:visible;opacity:0.1;enable-background:new    ;" width="52" height="53" xlink:href="8E868446.png"  transform="matrix(1 0 0 1 -286.02 -9.7034)">
			</image>
			<g>
				<g>
					<path class="st0" d="M-237.3,37.9c-0.8-3.9-2.2-7.6-4.4-10.9c-1.8-2.7-4.1-5-6.5-7.1c-0.2-0.2-0.8-0.3-0.4-0.8
						c0.5-0.6,0.1-1-0.4-1.2c-0.7-0.3-0.5-0.6-0.1-1c3.7-4.5,4.6-9.5,2.1-14.7c-0.1-0.3-0.3-0.6-0.4-0.8c-2.5-4.7-6.6-7.3-12.3-7.2
						c-5.5,0.1-9.7,2.5-12.1,7.2c-0.1,0.2-0.2,0.4-0.3,0.6c-2.5,5-1.9,10,1.6,14.5c0.5,0.6,1,1.1-0.1,1.5c-0.2,0.1-0.5,0.3-0.4,0.6
						c0.2,0.7-0.4,1-0.8,1.3c-5.5,4.5-9.1,10.2-10.5,17.2c-0.4,1.9-0.4,1.9,1.4,2.8c42.8,0,42.8,0,42.8,0S-237.2,38.7-237.3,37.9z
						 M-249.9,21c-0.1,0.1-0.2,0.3-0.4,0.4c-4.2,3.7-6.8,8.4-8.5,13.6c-0.1,0.2-0.1,0.5-0.2,0.7c-0.2,0.5-0.4,1-1.1,1
						c-0.7,0-1-0.5-1.1-1c-0.4-1.1-0.7-2.3-1.1-3.4c-1.2-3.1-2.8-5.9-4.9-8.4c-1-1.1-0.7-1.1-1.8,0c-3.9,4.4-6.5,9.4-8.1,15
						c-0.1,0.3-0.7,0.8-0.7,0.8s-1.8-0.7-1.6-1.5c1.5-5.9,4.5-11,8.9-15.3c0.2-0.2,0.5-0.4,0.7-0.7c0.2-0.2,0.6-0.3,0.3-0.7
						s-0.6,0-0.8,0.2c-0.6,0.6-1.2,1.1-1.8,1.8c-3.8,4.1-6.5,8.8-8,14.2c-0.1,0.3,0.1,0.9-0.5,0.7c-0.6-0.1-0.4-0.6-0.4-1
						c1.4-6.9,5-12.5,10.4-17c0.7-0.5,1-0.3,1.5,0.1c4.1,3.7,6.6,8.4,8.3,13.6c0.1,0.4,0.2,0.7,0.4,1.1c0.2,0.5,0.5,0.7,0.9,0.2
						c-0.1-0.1-0.2-0.3-0.3-0.4c-0.6-0.5-0.5-1.3-0.7-2c-0.4-1.5-0.7-3-0.9-4.6c0-0.1,0-0.2,0-0.3c-0.4-0.7,1.2-1.3,0.1-2
						c-0.7-0.4-0.8-1.3-1.1-2c-0.6,0.2-0.7,0.8-1.3,1.2c-1.5-2.3-3.2-4.4-5.2-6.3c-0.1-0.2-0.3-0.3-0.1-0.5c0.1-0.2,0.3-0.2,0.6-0.1
						c0.2,0.2,0.4,0.3,0.7,0.5c4.7,3.5,11.3,3.4,15.9-0.1c0.2-0.2,0.4-0.4,0.7-0.5c0.3-0.2,0.6,0,0.7,0.2c0.3,0.3-0.1,0.4-0.2,0.6
						c-2,1.8-3.7,3.8-5.1,6.1c-0.4,0-0.4-0.5-0.8-0.6c-0.3,0.7-0.6,1.5-1.3,1.9c-0.3,0.2-0.3,0.4-0.1,0.6c0.5,0.6,0.4,1.3,0.2,2
						c-0.2,1.1-0.8,2-0.7,3.1c0.5-0.1,0.5-0.6,0.6-0.9c1.6-3.8,3.7-7.2,6.6-10c0.3-0.2,0.5-0.5,0.8-0.7c0.1-0.1,0.3-0.2,0.5,0
						C-249.8,20.5-249.7,20.8-249.9,21z"/>
				</g>
			</g>
		</g>
	</g>
</g>
<path class="st3" d="M5.1,2.7c-0.9,0-1.6,0.7-1.6,1.6s0.7,1.6,1.6,1.6s1.6-0.7,1.6-1.6S6,2.7,5.1,2.7z M5.1,5.7
	c-0.8,0-1.4-0.6-1.4-1.4s0.6-1.4,1.4-1.4s1.4,0.6,1.4,1.4S5.9,5.7,5.1,5.7z"/>
<path class="st3" d="M18.8,0.1H1.2C0.6,0.1,0,0.6,0,1.3v11.8c0,0.7,0.5,1.2,1.2,1.2h17.6c0.7,0,1.2-0.5,1.2-1.2V1.3
	C20,0.6,19.4,0.1,18.8,0.1z M16.1,3.4h2.3v1.7h-2.3V3.4z M13.2,3.4h2.3v1.7h-2.3V3.4z M10.2,3.4h2.3v1.7h-2.3V3.4z M10.2,5.7h8.3
	v0.5h-8.3V5.7z M10.2,6.7h8.3v0.5h-8.3V6.7z M10.2,7.9h8.3v0.5h-8.3V7.9z M10.2,8.9h8.3v0.5h-8.3V8.9z M1.5,8.1L1.5,8.1l0-4.7h1.9
	c0.3-0.6,1-1,1.7-1s1.4,0.4,1.7,1h1.8v4.7h0v0.3H2.6l1.3-1.9l0.8,1.2C4.8,7.9,5,7.9,5.2,7.8c0,0,0,0,0.1-0.1c0,0,0,0,0,0l1.3-1.5
	c0.1-0.2,0.1-0.4,0-0.5C6.4,5.6,6.1,5.6,6,5.7L5,6.9L4.2,5.7c0,0,0,0,0,0c0,0-0.1-0.1-0.1-0.1C3.9,5.5,3.7,5.5,3.5,5.7L1.7,8.4
	c0,0,0,0,0,0H1.5V8.1z M18.5,11.4H1.5v-0.5h16.9V11.4z M18.5,10.4H1.5V9.9h16.9V10.4z"/>
</svg>
